<svg width="30" height="30" viewBox="0 0 30 30" fill="none" xmlns="http://www.w3.org/2000/svg">
<g clip-path="url(#clip0_101_3111)">
<path d="M13.0238 22.6154H16.171V14.9991H18.2701L18.5485 12.3751H16.171L16.1738 11.0607C16.1738 10.3763 16.2395 10.0098 17.221 10.0098H18.5335V7.38477H16.4335C13.9117 7.38477 13.0238 8.65789 13.0238 10.7991V12.3751H11.4517V15.0001H13.0238V22.6154Z" fill="black"/>
<path d="M15 0.9375C22.7541 0.9375 29.0625 7.24594 29.0625 15C29.0625 22.7541 22.7541 29.0625 15 29.0625C7.24594 29.0625 0.9375 22.7541 0.9375 15C0.9375 7.24594 7.24594 0.9375 15 0.9375ZM15 0C6.71531 0 0 6.71531 0 15C0 23.2847 6.71531 30 15 30C23.2847 30 30 23.2847 30 15C30 6.71531 23.2847 0 15 0Z" fill="black"/>
</g>
<defs>
<clipPath id="clip0_101_3111">
<rect width="30" height="30" fill="white"/>
</clipPath>
</defs>
</svg>
