<svg width="36" height="33" viewBox="0 0 36 33" fill="none" xmlns="http://www.w3.org/2000/svg">
<path d="M17.8 32.5154L16.8667 31.5945C13.5941 28.4157 10.8926 25.6935 8.76222 23.4281C6.63186 21.1627 4.94724 19.1769 3.70837 17.4708C2.46947 15.7648 1.60836 14.2309 1.12502 12.869C0.641691 11.5072 0.400024 10.1574 0.400024 8.81954C0.400024 6.33498 1.19724 4.24392 2.79167 2.54635C4.38614 0.848784 6.35559 0 8.70002 0C10.4889 0 12.1556 0.522443 13.7 1.56733C15.2445 2.61221 16.6111 4.14412 17.8 6.16305C19.0334 4.1205 20.4095 2.58269 21.9286 1.54964C23.4476 0.516545 25.1048 0 26.9 0C29.2445 0 31.2139 0.848784 32.8084 2.54635C34.4028 4.24392 35.2 6.33498 35.2 8.81954C35.2 10.1574 34.9584 11.5072 34.475 12.869C33.9917 14.2309 33.1319 15.7623 31.8955 17.4632C30.6592 19.1642 28.9773 21.1499 26.85 23.4205C24.7226 25.691 22.0171 28.4157 18.7334 31.5945L17.8 32.5154ZM17.8 30.7798C21.0287 27.6618 23.6857 24.9916 25.7709 22.7695C27.8561 20.5473 29.51 18.6113 30.7327 16.9615C31.9553 15.3116 32.8056 13.8516 33.2834 12.5815C33.7611 11.3113 34 10.059 34 8.82464C34 6.67243 33.3222 4.87613 31.9667 3.43574C30.6111 1.99532 28.9248 1.27511 26.9075 1.27511C25.2514 1.27511 23.7389 1.77985 22.37 2.78931C21.0011 3.79878 19.6667 5.40743 18.3667 7.61525H17.2334C15.9 5.39563 14.5519 3.78403 13.189 2.78044C11.8261 1.77689 10.3273 1.27511 8.69252 1.27511C6.70862 1.27511 5.03057 1.99532 3.65837 3.43574C2.28614 4.87613 1.60002 6.67836 1.60002 8.84244C1.60002 10.0694 1.84069 11.3173 2.32202 12.5862C2.80336 13.8551 3.64781 15.3126 4.85537 16.9587C6.06291 18.6048 7.71667 20.5347 9.81668 22.7484C11.9167 24.9622 14.5778 27.6393 17.8 30.7798Z" fill="#1C1B1F"/>
</svg>
