<svg width="30" height="30" viewBox="0 0 30 30" fill="none" xmlns="http://www.w3.org/2000/svg">
<g clip-path="url(#clip0_101_3105)">
<path d="M24.9384 5.05932C22.4008 2.51353 18.8821 0.941406 14.9978 0.941406C11.1213 0.941406 7.6029 2.51354 5.05729 5.05926C2.51169 7.60486 0.939209 11.1154 0.939209 14.9998C0.939209 18.884 2.51163 22.3949 5.05729 24.9403C7.6029 27.4861 11.1213 29.0581 14.9978 29.0581C18.8821 29.0581 22.4007 27.4861 24.9384 24.9403C27.4839 22.3949 29.0565 18.884 29.0565 14.9998C29.0565 11.1155 27.4839 7.60492 24.9384 5.05932ZM24.1679 24.1697C21.8168 26.513 18.5787 27.9608 14.9979 27.9608C11.4249 27.9608 8.17882 26.513 5.83589 24.1697C3.49255 21.8191 2.03696 18.5807 2.03696 14.9999C2.03696 11.4191 3.49255 8.18078 5.83589 5.83773C8.17882 3.49469 11.4249 2.03881 14.9979 2.03881C18.5788 2.03881 21.8168 3.49469 24.1679 5.83773C26.511 8.18078 27.9588 11.4191 27.9588 14.9999C27.9588 18.5807 26.511 21.8191 24.1679 24.1697Z" fill="black"/>
<path d="M14.9979 10.4541C12.4913 10.4541 10.4519 12.4935 10.4519 15.0001C10.4519 17.5146 12.4913 19.5464 14.9979 19.5464C17.5122 19.5464 19.5439 17.5146 19.5439 15.0001C19.544 12.4935 17.5122 10.4541 14.9979 10.4541ZM14.9979 18.6043C13.0129 18.6043 11.4015 16.9929 11.4015 15.0001C11.4015 13.0151 13.0129 11.3959 14.9979 11.3959C16.9907 11.3959 18.6021 13.0151 18.6021 15.0001C18.6021 16.9929 16.9907 18.6043 14.9979 18.6043Z" fill="black"/>
<path d="M18.7187 7.96875H11.2848C9.45551 7.96875 7.91016 9.44965 7.91016 11.2871V18.7212C7.91016 20.55 9.45551 21.8555 11.2848 21.8555H18.7187C20.5557 21.8555 22.0898 20.55 22.0898 18.7212V11.2871C22.0898 9.44965 20.5557 7.96875 18.7187 7.96875ZM21.2695 18.7212C21.2695 20.0987 20.0966 21.0352 18.7187 21.0352H11.2848C9.90668 21.0352 8.78906 20.0987 8.78906 18.7212V11.2871C8.78906 9.90896 9.90668 8.78906 11.2848 8.78906H18.7187C20.0966 8.78906 21.2695 9.90896 21.2695 11.2871V18.7212Z" fill="black"/>
<path d="M19.4582 9.83887C19.3621 9.83874 19.2669 9.85757 19.1781 9.89428C19.0893 9.93099 19.0086 9.98486 18.9406 10.0528C18.8727 10.1208 18.8188 10.2014 18.782 10.2903C18.7453 10.3791 18.7265 10.4742 18.7266 10.5704C18.7266 10.9753 19.0534 11.3022 19.4582 11.3022C19.5544 11.3023 19.6496 11.2835 19.7384 11.2467C19.8273 11.21 19.908 11.1561 19.976 11.0881C20.044 11.0201 20.0979 10.9394 20.1346 10.8506C20.1714 10.7617 20.1902 10.6665 20.1901 10.5704C20.1901 10.1657 19.863 9.83887 19.4582 9.83887Z" fill="black"/>
</g>
<defs>
<clipPath id="clip0_101_3105">
<rect width="30" height="30" fill="white"/>
</clipPath>
</defs>
</svg>
